# xmcd
#
# Track frame offsets: 
#        150
#        19872
#        38202
#        56877
#        78205
#        95635
#        114060
#        134890
#        152807
#
# Disc length: 2247 seconds
#
# Revision: 3
# Processed by: cddbd v1.5.1PL0 Copyright (c) Steve Scherf et al.
# Submitted via: ExactAudioCopy v0.95a5
#
DISCID=7308c509
DTITLE=Various Artist - The Heart Of Soul
DYEAR=1900
DGENRE=
TTITLE0=Michael Jackson - I Just Can't Stop Loving You
TTITLE1=Gregory Abbott - Shake You Down
TTITLE2=The Jets - You Got It All
TTITLE3=Kenny G - Don't Make Me Wait For Love
TTITLE4=Bruce Willis - Respect Yourself
TTITLE5=Robert Cray Band - Smoking Gun
TTITLE6=Lisa Lisa and Cult Jam - Lost In Emotion
TTITLE7=Miami Sound Machine - Rhythm Is Gonna Get You
TTITLE8=Beastie Boys - Fight For Your Right
EXTD=
EXTT0=
EXTT1=
EXTT2=
EXTT3=
EXTT4=
EXTT5=
EXTT6=
EXTT7=
EXTT8=
PLAYORDER=
